<svg xmlns="http://www.w3.org/2000/svg" xmlns:xlink="http://www.w3.org/1999/xlink" width="500" zoomAndPan="magnify" viewBox="0 0 375 374.999991" height="500" preserveAspectRatio="xMidYMid meet" version="1.0"><defs><g/></defs><rect x="-37.5" width="450" fill="#ffffff" y="-37.499999" height="449.999989" fill-opacity="1"/><rect x="-37.5" width="450" fill="#ffffff" y="-37.499999" height="449.999989" fill-opacity="1"/><rect x="-37.5" width="450" fill="#303841" y="-37.499999" height="449.999989" fill-opacity="1"/><path fill="#fff200" d="M 330.875 311.847656 L 255.609375 311.847656 C 252.1875 311.847656 249.421875 309.082031 249.421875 305.660156 C 249.421875 302.242188 252.1875 299.472656 255.609375 299.472656 L 324.6875 299.472656 L 324.6875 209.222656 L 243.734375 128.277344 L 213.3125 151.941406 L 213.3125 305.660156 C 213.3125 309.082031 210.542969 311.847656 207.125 311.847656 L 129.816406 311.847656 C 128.144531 311.847656 126.542969 311.171875 125.375 309.964844 C 124.207031 308.765625 123.582031 307.148438 123.628906 305.46875 L 126.6875 206.46875 C 126.746094 204.628906 127.621094 202.902344 129.074219 201.777344 L 200.9375 145.886719 L 200.9375 83.117188 L 52.144531 197.777344 L 52.144531 299.472656 L 95.75 299.472656 C 99.167969 299.472656 101.9375 302.242188 101.9375 305.660156 C 101.9375 309.082031 99.167969 311.847656 95.75 311.847656 L 45.957031 311.847656 C 42.539062 311.847656 39.769531 309.082031 39.769531 305.660156 L 39.769531 194.734375 C 39.769531 192.8125 40.660156 191 42.183594 189.828125 L 203.347656 65.628906 C 205.21875 64.203125 207.753906 63.9375 209.855469 64.988281 C 211.96875 66.027344 213.3125 68.179688 213.3125 70.535156 L 213.3125 136.253906 L 240.449219 115.152344 C 242.90625 113.257812 246.40625 113.460938 248.625 115.660156 L 335.25 202.285156 C 336.410156 203.445312 337.0625 205.015625 337.0625 206.660156 L 337.0625 305.660156 C 337.0625 309.082031 334.292969 311.847656 330.875 311.847656 Z M 136.195312 299.472656 L 200.9375 299.472656 L 200.9375 161.558594 L 138.972656 209.753906 L 136.199219 299.472656 Z M 136.195312 299.472656 " fill-opacity="1" fill-rule="nonzero"/><path fill="#303841" d="M 81.625 202.640625 L 294.683594 202.640625 C 300.734375 202.640625 306.539062 205.054688 310.820312 209.347656 C 315.101562 213.640625 317.503906 219.464844 317.503906 225.535156 L 317.503906 271.320312 C 317.503906 277.394531 315.101562 283.214844 310.820312 287.507812 C 306.539062 291.800781 300.734375 294.214844 294.683594 294.214844 L 81.625 294.214844 C 69.023438 294.214844 58.804688 283.964844 58.804688 271.320312 L 58.804688 225.535156 C 58.804688 212.890625 69.023438 202.640625 81.625 202.640625 " fill-opacity="1" fill-rule="nonzero"/><g fill="#ffffff" fill-opacity="1"><g transform="translate(81.48977, 267.696647)"><g><path d="M 23.84375 0.796875 C 19.664062 0.796875 15.914062 -0.0820312 12.59375 -1.84375 C 9.28125 -3.613281 6.675781 -6.070312 4.78125 -9.21875 C 2.882812 -12.363281 1.9375 -15.925781 1.9375 -19.90625 C 1.9375 -23.894531 2.882812 -27.460938 4.78125 -30.609375 C 6.675781 -33.753906 9.28125 -36.207031 12.59375 -37.96875 C 15.914062 -39.738281 19.664062 -40.625 23.84375 -40.625 C 27.476562 -40.625 30.753906 -39.976562 33.671875 -38.6875 C 36.597656 -37.394531 39.03125 -35.535156 40.96875 -33.109375 L 33.796875 -26.625 C 31.210938 -29.738281 28.082031 -31.296875 24.40625 -31.296875 C 22.238281 -31.296875 20.3125 -30.820312 18.625 -29.875 C 16.9375 -28.925781 15.628906 -27.585938 14.703125 -25.859375 C 13.773438 -24.128906 13.3125 -22.144531 13.3125 -19.90625 C 13.3125 -17.675781 13.773438 -15.695312 14.703125 -13.96875 C 15.628906 -12.238281 16.9375 -10.898438 18.625 -9.953125 C 20.3125 -9.003906 22.238281 -8.53125 24.40625 -8.53125 C 28.082031 -8.53125 31.210938 -10.085938 33.796875 -13.203125 L 40.96875 -6.71875 C 39.03125 -4.289062 36.597656 -2.429688 33.671875 -1.140625 C 30.753906 0.148438 27.476562 0.796875 23.84375 0.796875 Z M 23.84375 0.796875 "/></g></g></g><g fill="#ffffff" fill-opacity="1"><g transform="translate(123.467972, 267.696647)"><g><path d="M 35.953125 -8.703125 L 35.953125 0 L 3.984375 0 L 3.984375 -39.828125 L 35.21875 -39.828125 L 35.21875 -31.125 L 15.140625 -31.125 L 15.140625 -24.40625 L 32.828125 -24.40625 L 32.828125 -15.984375 L 15.140625 -15.984375 L 15.140625 -8.703125 Z M 35.953125 -8.703125 "/></g></g></g><g fill="#ffffff" fill-opacity="1"><g transform="translate(161.692045, 267.696647)"><g><path d="M 21.390625 -10.578125 L 15.25 -10.578125 L 15.25 0 L 3.984375 0 L 3.984375 -39.828125 L 22.1875 -39.828125 C 25.789062 -39.828125 28.921875 -39.226562 31.578125 -38.03125 C 34.234375 -36.832031 36.28125 -35.125 37.71875 -32.90625 C 39.15625 -30.6875 39.875 -28.082031 39.875 -25.09375 C 39.875 -22.207031 39.203125 -19.691406 37.859375 -17.546875 C 36.515625 -15.410156 34.59375 -13.734375 32.09375 -12.515625 L 40.671875 0 L 28.609375 0 Z M 28.5 -25.09375 C 28.5 -26.945312 27.910156 -28.382812 26.734375 -29.40625 C 25.554688 -30.4375 23.8125 -30.953125 21.5 -30.953125 L 15.25 -30.953125 L 15.25 -19.28125 L 21.5 -19.28125 C 23.8125 -19.28125 25.554688 -19.78125 26.734375 -20.78125 C 27.910156 -21.789062 28.5 -23.226562 28.5 -25.09375 Z M 28.5 -25.09375 "/></g></g></g><g fill="#ffffff" fill-opacity="1"><g transform="translate(203.78401, 267.696647)"><g><path d="M 44.375 -39.828125 L 27.3125 0 L 16.21875 0 L -0.796875 -39.828125 L 11.375 -39.828125 L 22.1875 -13.875 L 33.21875 -39.828125 Z M 44.375 -39.828125 "/></g></g></g><g fill="#ffffff" fill-opacity="1"><g transform="translate(247.35489, 267.696647)"><g><path d="M 24.0625 0.796875 C 19.851562 0.796875 16.070312 -0.09375 12.71875 -1.875 C 9.363281 -3.65625 6.726562 -6.117188 4.8125 -9.265625 C 2.894531 -12.421875 1.9375 -15.96875 1.9375 -19.90625 C 1.9375 -23.851562 2.894531 -27.398438 4.8125 -30.546875 C 6.726562 -33.691406 9.363281 -36.15625 12.71875 -37.9375 C 16.070312 -39.726562 19.851562 -40.625 24.0625 -40.625 C 28.269531 -40.625 32.050781 -39.726562 35.40625 -37.9375 C 38.769531 -36.15625 41.40625 -33.691406 43.3125 -30.546875 C 45.226562 -27.398438 46.1875 -23.851562 46.1875 -19.90625 C 46.1875 -15.96875 45.226562 -12.421875 43.3125 -9.265625 C 41.40625 -6.117188 38.769531 -3.65625 35.40625 -1.875 C 32.050781 -0.09375 28.269531 0.796875 24.0625 0.796875 Z M 24.0625 -8.53125 C 26.070312 -8.53125 27.890625 -9.003906 29.515625 -9.953125 C 31.148438 -10.898438 32.441406 -12.238281 33.390625 -13.96875 C 34.335938 -15.695312 34.8125 -17.675781 34.8125 -19.90625 C 34.8125 -22.144531 34.335938 -24.128906 33.390625 -25.859375 C 32.441406 -27.585938 31.148438 -28.925781 29.515625 -29.875 C 27.890625 -30.820312 26.070312 -31.296875 24.0625 -31.296875 C 22.050781 -31.296875 20.226562 -30.820312 18.59375 -29.875 C 16.96875 -28.925781 15.679688 -27.585938 14.734375 -25.859375 C 13.785156 -24.128906 13.3125 -22.144531 13.3125 -19.90625 C 13.3125 -17.675781 13.785156 -15.695312 14.734375 -13.96875 C 15.679688 -12.238281 16.96875 -10.898438 18.59375 -9.953125 C 20.226562 -9.003906 22.050781 -8.53125 24.0625 -8.53125 Z M 24.0625 -8.53125 "/></g></g></g></svg>