<svg xmlns="http://www.w3.org/2000/svg" xmlns:xlink="http://www.w3.org/1999/xlink" width="500" zoomAndPan="magnify" viewBox="0 0 375 374.999991" height="500" preserveAspectRatio="xMidYMid meet" version="1.0"><defs><g/></defs><rect x="-37.5" width="450" fill="#ffffff" y="-37.499999" height="449.999989" fill-opacity="1"/><rect x="-37.5" width="450" fill="#ffffff" y="-37.499999" height="449.999989" fill-opacity="1"/><rect x="-37.5" width="450" fill="#fff200" y="-37.499999" height="449.999989" fill-opacity="1"/><path fill="#000000" d="M 322.402344 304.6875 L 251.128906 304.6875 C 247.890625 304.6875 245.269531 302.066406 245.269531 298.828125 C 245.269531 295.589844 247.890625 292.96875 251.128906 292.96875 L 316.542969 292.96875 L 316.542969 207.503906 L 239.886719 130.851562 L 211.074219 153.257812 L 211.074219 298.828125 C 211.074219 302.066406 208.453125 304.6875 205.214844 304.6875 L 132.007812 304.6875 C 130.421875 304.6875 128.90625 304.046875 127.800781 302.902344 C 126.699219 301.769531 126.101562 300.234375 126.148438 298.644531 L 129.042969 204.894531 C 129.101562 203.15625 129.929688 201.519531 131.304688 200.453125 L 199.355469 147.527344 L 199.355469 88.085938 L 58.457031 196.667969 L 58.457031 292.96875 L 99.746094 292.96875 C 102.984375 292.96875 105.605469 295.589844 105.605469 298.828125 C 105.605469 302.066406 102.984375 304.6875 99.746094 304.6875 L 52.597656 304.6875 C 49.359375 304.6875 46.738281 302.066406 46.738281 298.828125 L 46.738281 193.78125 C 46.738281 191.960938 47.578125 190.246094 49.019531 189.136719 L 201.640625 71.523438 C 203.414062 70.175781 205.808594 69.921875 207.800781 70.917969 C 209.804688 71.902344 211.074219 73.941406 211.074219 76.171875 L 211.074219 138.40625 L 236.773438 118.421875 C 239.101562 116.625 242.414062 116.820312 244.515625 118.902344 L 326.546875 200.933594 C 327.644531 202.035156 328.261719 203.519531 328.261719 205.078125 L 328.261719 298.828125 C 328.261719 302.066406 325.640625 304.6875 322.402344 304.6875 Z M 138.050781 292.96875 L 199.355469 292.96875 L 199.355469 162.367188 L 140.675781 208.007812 Z M 138.050781 292.96875 " fill-opacity="1" fill-rule="nonzero"/><path fill="#fff200" d="M 86.339844 201.195312 L 288.023438 201.195312 C 293.753906 201.195312 299.246094 203.480469 303.300781 207.542969 C 307.351562 211.609375 309.625 217.121094 309.625 222.867188 L 309.625 266.210938 C 309.625 271.957031 307.351562 277.46875 303.300781 281.53125 C 299.246094 285.597656 293.753906 287.878906 288.023438 287.878906 L 86.339844 287.878906 C 74.410156 287.878906 64.738281 278.175781 64.738281 266.210938 L 64.738281 222.867188 C 64.738281 210.898438 74.410156 201.195312 86.339844 201.195312 " fill-opacity="1" fill-rule="nonzero"/><g fill="#000000" fill-opacity="1"><g transform="translate(86.21151, 262.778145)"><g><path d="M 22.5625 0.75 C 18.613281 0.75 15.066406 -0.0820312 11.921875 -1.75 C 8.785156 -3.414062 6.316406 -5.738281 4.515625 -8.71875 C 2.722656 -11.695312 1.828125 -15.070312 1.828125 -18.84375 C 1.828125 -22.613281 2.722656 -25.988281 4.515625 -28.96875 C 6.316406 -31.945312 8.785156 -34.269531 11.921875 -35.9375 C 15.066406 -37.601562 18.613281 -38.4375 22.5625 -38.4375 C 26.007812 -38.4375 29.113281 -37.828125 31.875 -36.609375 C 34.632812 -35.390625 36.929688 -33.632812 38.765625 -31.34375 L 31.984375 -25.203125 C 29.546875 -28.140625 26.582031 -29.609375 23.09375 -29.609375 C 21.050781 -29.609375 19.226562 -29.160156 17.625 -28.265625 C 16.03125 -27.367188 14.789062 -26.101562 13.90625 -24.46875 C 13.03125 -22.832031 12.59375 -20.957031 12.59375 -18.84375 C 12.59375 -16.726562 13.03125 -14.851562 13.90625 -13.21875 C 14.789062 -11.582031 16.03125 -10.316406 17.625 -9.421875 C 19.226562 -8.523438 21.050781 -8.078125 23.09375 -8.078125 C 26.582031 -8.078125 29.546875 -9.546875 31.984375 -12.484375 L 38.765625 -6.359375 C 36.929688 -4.054688 34.632812 -2.296875 31.875 -1.078125 C 29.113281 0.140625 26.007812 0.75 22.5625 0.75 Z M 22.5625 0.75 "/></g></g></g><g fill="#000000" fill-opacity="1"><g transform="translate(125.948707, 262.778145)"><g><path d="M 34.03125 -8.234375 L 34.03125 0 L 3.765625 0 L 3.765625 -37.6875 L 33.328125 -37.6875 L 33.328125 -29.453125 L 14.328125 -29.453125 L 14.328125 -23.09375 L 31.0625 -23.09375 L 31.0625 -15.125 L 14.328125 -15.125 L 14.328125 -8.234375 Z M 34.03125 -8.234375 "/></g></g></g><g fill="#000000" fill-opacity="1"><g transform="translate(162.13219, 262.778145)"><g><path d="M 20.25 -10.015625 L 14.4375 -10.015625 L 14.4375 0 L 3.765625 0 L 3.765625 -37.6875 L 21 -37.6875 C 24.40625 -37.6875 27.363281 -37.117188 29.875 -35.984375 C 32.394531 -34.859375 34.335938 -33.242188 35.703125 -31.140625 C 37.066406 -29.046875 37.75 -26.582031 37.75 -23.75 C 37.75 -21.019531 37.109375 -18.640625 35.828125 -16.609375 C 34.554688 -14.578125 32.738281 -12.988281 30.375 -11.84375 L 38.5 0 L 27.078125 0 Z M 26.96875 -23.75 C 26.96875 -25.507812 26.410156 -26.875 25.296875 -27.84375 C 24.191406 -28.8125 22.546875 -29.296875 20.359375 -29.296875 L 14.4375 -29.296875 L 14.4375 -18.25 L 20.359375 -18.25 C 22.546875 -18.25 24.191406 -18.722656 25.296875 -19.671875 C 26.410156 -20.628906 26.96875 -21.988281 26.96875 -23.75 Z M 26.96875 -23.75 "/></g></g></g><g fill="#000000" fill-opacity="1"><g transform="translate(201.977077, 262.778145)"><g><path d="M 42 -37.6875 L 25.84375 0 L 15.34375 0 L -0.75 -37.6875 L 10.765625 -37.6875 L 21 -13.140625 L 31.4375 -37.6875 Z M 42 -37.6875 "/></g></g></g><g fill="#000000" fill-opacity="1"><g transform="translate(243.221928, 262.778145)"><g><path d="M 22.78125 0.75 C 18.789062 0.75 15.207031 -0.09375 12.03125 -1.78125 C 8.851562 -3.46875 6.359375 -5.800781 4.546875 -8.78125 C 2.734375 -11.757812 1.828125 -15.113281 1.828125 -18.84375 C 1.828125 -22.570312 2.734375 -25.925781 4.546875 -28.90625 C 6.359375 -31.894531 8.851562 -34.226562 12.03125 -35.90625 C 15.207031 -37.59375 18.789062 -38.4375 22.78125 -38.4375 C 26.757812 -38.4375 30.335938 -37.59375 33.515625 -35.90625 C 36.691406 -34.226562 39.1875 -31.894531 41 -28.90625 C 42.8125 -25.925781 43.71875 -22.570312 43.71875 -18.84375 C 43.71875 -15.113281 42.8125 -11.757812 41 -8.78125 C 39.1875 -5.800781 36.691406 -3.46875 33.515625 -1.78125 C 30.335938 -0.09375 26.757812 0.75 22.78125 0.75 Z M 22.78125 -8.078125 C 24.675781 -8.078125 26.394531 -8.523438 27.9375 -9.421875 C 29.488281 -10.316406 30.710938 -11.582031 31.609375 -13.21875 C 32.503906 -14.851562 32.953125 -16.726562 32.953125 -18.84375 C 32.953125 -20.957031 32.503906 -22.832031 31.609375 -24.46875 C 30.710938 -26.101562 29.488281 -27.367188 27.9375 -28.265625 C 26.394531 -29.160156 24.675781 -29.609375 22.78125 -29.609375 C 20.875 -29.609375 19.148438 -29.160156 17.609375 -28.265625 C 16.066406 -27.367188 14.84375 -26.101562 13.9375 -24.46875 C 13.039062 -22.832031 12.59375 -20.957031 12.59375 -18.84375 C 12.59375 -16.726562 13.039062 -14.851562 13.9375 -13.21875 C 14.84375 -11.582031 16.066406 -10.316406 17.609375 -9.421875 C 19.148438 -8.523438 20.875 -8.078125 22.78125 -8.078125 Z M 22.78125 -8.078125 "/></g></g></g></svg>