<svg xmlns="http://www.w3.org/2000/svg" xmlns:xlink="http://www.w3.org/1999/xlink" width="500" zoomAndPan="magnify" viewBox="0 0 375 225" height="300" preserveAspectRatio="xMidYMid meet" version="1.0"><defs><g/><clipPath id="1f37f59f06"><path d="M 186.246094 42.375 L 327.945312 42.375 L 327.945312 129.988281 L 186.246094 129.988281 Z M 186.246094 42.375 " clip-rule="nonzero"/></clipPath></defs><g clip-path="url(#1f37f59f06)"><path fill="#00c2cb" d="M 193.71875 69.328125 L 320.484375 69.328125 C 322.824219 69.328125 324.726562 71.238281 324.726562 73.601562 L 324.726562 122.488281 C 324.726562 124.84375 322.824219 126.765625 320.484375 126.765625 L 193.71875 126.765625 C 191.363281 126.765625 189.464844 124.84375 189.464844 122.488281 L 189.464844 73.601562 C 189.464844 71.238281 191.363281 69.328125 193.71875 69.328125 Z M 283.550781 42.386719 L 281.476562 42.527344 C 281.902344 48.636719 279.726562 54.644531 275.488281 59.058594 C 274.214844 60.386719 272.214844 60.714844 270.582031 59.867188 L 262.832031 55.84375 C 260.554688 54.65625 257.75 55.554688 256.566406 57.855469 C 256.226562 58.511719 256.050781 59.246094 256.050781 59.992188 L 256.050781 66.089844 L 193.71875 66.089844 C 189.589844 66.089844 186.246094 69.453125 186.246094 73.601562 L 186.246094 122.488281 C 186.246094 126.636719 189.589844 129.988281 193.71875 129.988281 L 320.484375 129.988281 C 324.597656 129.988281 327.945312 126.636719 327.945312 122.488281 L 327.945312 73.601562 C 327.945312 69.453125 324.597656 66.089844 320.484375 66.089844 L 258.140625 66.089844 L 258.140625 59.992188 C 258.140625 58.5625 259.285156 57.414062 260.707031 57.414062 C 261.109375 57.414062 261.511719 57.515625 261.875 57.703125 L 269.625 61.726562 C 272.078125 63.003906 275.070312 62.511719 276.984375 60.511719 C 281.625 55.667969 284.015625 49.089844 283.550781 42.386719 " fill-opacity="1" fill-rule="nonzero"/></g><path fill="#00c2cb" d="M 202.761719 74.210938 L 196.121094 74.210938 C 195.429688 74.210938 194.875 74.78125 194.875 75.460938 L 194.875 80.140625 C 194.875 80.839844 195.429688 81.394531 196.121094 81.394531 L 202.761719 81.394531 C 203.453125 81.394531 204.007812 80.839844 204.007812 80.140625 L 204.007812 75.460938 C 204.007812 74.78125 203.453125 74.210938 202.761719 74.210938 " fill-opacity="1" fill-rule="nonzero"/><path fill="#00c2cb" d="M 217.480469 74.210938 L 210.839844 74.210938 C 210.148438 74.210938 209.59375 74.78125 209.59375 75.460938 L 209.59375 80.140625 C 209.59375 80.839844 210.148438 81.394531 210.839844 81.394531 L 217.480469 81.394531 C 218.171875 81.394531 218.726562 80.839844 218.726562 80.140625 L 218.726562 75.460938 C 218.726562 74.78125 218.171875 74.210938 217.480469 74.210938 " fill-opacity="1" fill-rule="nonzero"/><path fill="#00c2cb" d="M 232.199219 74.210938 L 225.558594 74.210938 C 224.867188 74.210938 224.3125 74.78125 224.3125 75.460938 L 224.3125 80.140625 C 224.3125 80.839844 224.867188 81.394531 225.558594 81.394531 L 232.199219 81.394531 C 232.890625 81.394531 233.445312 80.839844 233.445312 80.140625 L 233.445312 75.460938 C 233.445312 74.78125 232.890625 74.210938 232.199219 74.210938 " fill-opacity="1" fill-rule="nonzero"/><path fill="#00c2cb" d="M 246.917969 74.210938 L 240.277344 74.210938 C 239.582031 74.210938 239.03125 74.78125 239.03125 75.460938 L 239.03125 80.140625 C 239.03125 80.839844 239.582031 81.394531 240.277344 81.394531 L 246.917969 81.394531 C 247.609375 81.394531 248.164062 80.839844 248.164062 80.140625 L 248.164062 75.460938 C 248.164062 74.78125 247.609375 74.210938 246.917969 74.210938 " fill-opacity="1" fill-rule="nonzero"/><path fill="#00c2cb" d="M 261.636719 74.210938 L 254.996094 74.210938 C 254.300781 74.210938 253.75 74.78125 253.75 75.460938 L 253.75 80.140625 C 253.75 80.839844 254.300781 81.394531 254.996094 81.394531 L 261.636719 81.394531 C 262.328125 81.394531 262.882812 80.839844 262.882812 80.140625 L 262.882812 75.460938 C 262.882812 74.78125 262.328125 74.210938 261.636719 74.210938 " fill-opacity="1" fill-rule="nonzero"/><path fill="#00c2cb" d="M 276.355469 74.210938 L 269.714844 74.210938 C 269.019531 74.210938 268.46875 74.78125 268.46875 75.460938 L 268.46875 80.140625 C 268.46875 80.839844 269.019531 81.394531 269.714844 81.394531 L 276.355469 81.394531 C 277.046875 81.394531 277.601562 80.839844 277.601562 80.140625 L 277.601562 75.460938 C 277.601562 74.78125 277.046875 74.210938 276.355469 74.210938 " fill-opacity="1" fill-rule="nonzero"/><path fill="#00c2cb" d="M 291.074219 74.210938 L 284.429688 74.210938 C 283.738281 74.210938 283.1875 74.78125 283.1875 75.460938 L 283.1875 80.140625 C 283.1875 80.839844 283.738281 81.394531 284.429688 81.394531 L 291.074219 81.394531 C 291.765625 81.394531 292.320312 80.839844 292.320312 80.140625 L 292.320312 75.460938 C 292.320312 74.78125 291.765625 74.210938 291.074219 74.210938 " fill-opacity="1" fill-rule="nonzero"/><path fill="#00c2cb" d="M 305.792969 74.210938 L 299.148438 74.210938 C 298.457031 74.210938 297.90625 74.78125 297.90625 75.460938 L 297.90625 80.140625 C 297.90625 80.839844 298.457031 81.394531 299.148438 81.394531 L 305.792969 81.394531 C 306.484375 81.394531 307.039062 80.839844 307.039062 80.140625 L 307.039062 75.460938 C 307.039062 74.78125 306.484375 74.210938 305.792969 74.210938 " fill-opacity="1" fill-rule="nonzero"/><path fill="#00c2cb" d="M 320.523438 74.210938 L 313.867188 74.210938 C 313.175781 74.210938 312.625 74.78125 312.625 75.460938 L 312.625 80.140625 C 312.625 80.839844 313.175781 81.394531 313.867188 81.394531 L 320.523438 81.394531 C 321.203125 81.394531 321.757812 80.839844 321.757812 80.140625 L 321.757812 75.460938 C 321.757812 74.78125 321.203125 74.210938 320.523438 74.210938 " fill-opacity="1" fill-rule="nonzero"/><path fill="#00c2cb" d="M 208.421875 87.910156 L 196.121094 87.910156 C 195.429688 87.910156 194.875 88.464844 194.875 89.160156 L 194.875 93.839844 C 194.875 94.523438 195.429688 95.09375 196.121094 95.09375 L 208.421875 95.09375 C 209.113281 95.09375 209.667969 94.523438 209.667969 93.839844 L 209.667969 89.160156 C 209.667969 88.464844 209.113281 87.910156 208.421875 87.910156 " fill-opacity="1" fill-rule="nonzero"/><path fill="#00c2cb" d="M 225.355469 87.910156 L 218.714844 87.910156 C 218.023438 87.910156 217.46875 88.464844 217.46875 89.160156 L 217.46875 93.839844 C 217.46875 94.523438 218.023438 95.09375 218.714844 95.09375 L 225.355469 95.09375 C 226.046875 95.09375 226.601562 94.523438 226.601562 93.839844 L 226.601562 89.160156 C 226.601562 88.464844 226.046875 87.910156 225.355469 87.910156 " fill-opacity="1" fill-rule="nonzero"/><path fill="#00c2cb" d="M 239.921875 87.910156 L 233.269531 87.910156 C 232.589844 87.910156 232.023438 88.464844 232.023438 89.160156 L 232.023438 93.839844 C 232.023438 94.523438 232.589844 95.09375 233.269531 95.09375 L 239.921875 95.09375 C 240.601562 95.09375 241.167969 94.523438 241.167969 93.839844 L 241.167969 89.160156 C 241.167969 88.464844 240.601562 87.910156 239.921875 87.910156 " fill-opacity="1" fill-rule="nonzero"/><path fill="#00c2cb" d="M 254.480469 87.910156 L 247.835938 87.910156 C 247.144531 87.910156 246.589844 88.464844 246.589844 89.160156 L 246.589844 93.839844 C 246.589844 94.523438 247.144531 95.09375 247.835938 95.09375 L 254.480469 95.09375 C 255.171875 95.09375 255.722656 94.523438 255.722656 93.839844 L 255.722656 89.160156 C 255.722656 88.464844 255.171875 87.910156 254.480469 87.910156 " fill-opacity="1" fill-rule="nonzero"/><path fill="#00c2cb" d="M 269.046875 87.910156 L 262.402344 87.910156 C 261.710938 87.910156 261.160156 88.464844 261.160156 89.160156 L 261.160156 93.839844 C 261.160156 94.523438 261.710938 95.09375 262.402344 95.09375 L 269.046875 95.09375 C 269.738281 95.09375 270.292969 94.523438 270.292969 93.839844 L 270.292969 89.160156 C 270.292969 88.464844 269.738281 87.910156 269.046875 87.910156 " fill-opacity="1" fill-rule="nonzero"/><path fill="#00c2cb" d="M 283.613281 87.910156 L 276.960938 87.910156 C 276.28125 87.910156 275.714844 88.464844 275.714844 89.160156 L 275.714844 93.839844 C 275.714844 94.523438 276.28125 95.09375 276.960938 95.09375 L 283.613281 95.09375 C 284.292969 95.09375 284.859375 94.523438 284.859375 93.839844 L 284.859375 89.160156 C 284.859375 88.464844 284.292969 87.910156 283.613281 87.910156 " fill-opacity="1" fill-rule="nonzero"/><path fill="#00c2cb" d="M 298.179688 87.910156 L 291.527344 87.910156 C 290.835938 87.910156 290.28125 88.464844 290.28125 89.160156 L 290.28125 93.839844 C 290.28125 94.523438 290.835938 95.09375 291.527344 95.09375 L 298.179688 95.09375 C 298.859375 95.09375 299.414062 94.523438 299.414062 93.839844 L 299.414062 89.160156 C 299.414062 88.464844 298.859375 87.910156 298.179688 87.910156 " fill-opacity="1" fill-rule="nonzero"/><path fill="#00c2cb" d="M 318.070312 87.910156 L 305.765625 87.910156 C 305.074219 87.910156 304.523438 88.464844 304.523438 89.160156 L 304.523438 93.839844 C 304.523438 94.523438 305.074219 95.09375 305.765625 95.09375 L 318.070312 95.09375 C 318.761719 95.09375 319.316406 94.523438 319.316406 93.839844 L 319.316406 89.160156 C 319.316406 88.464844 318.761719 87.910156 318.070312 87.910156 " fill-opacity="1" fill-rule="nonzero"/><path fill="#00c2cb" d="M 202.761719 101.480469 L 196.121094 101.480469 C 195.429688 101.480469 194.875 102.035156 194.875 102.734375 L 194.875 107.398438 C 194.875 108.09375 195.429688 108.652344 196.121094 108.652344 L 202.761719 108.652344 C 203.453125 108.652344 204.007812 108.09375 204.007812 107.398438 L 204.007812 102.734375 C 204.007812 102.035156 203.453125 101.480469 202.761719 101.480469 " fill-opacity="1" fill-rule="nonzero"/><path fill="#00c2cb" d="M 217.367188 101.480469 L 210.726562 101.480469 C 210.035156 101.480469 209.480469 102.035156 209.480469 102.734375 L 209.480469 107.398438 C 209.480469 108.09375 210.035156 108.652344 210.726562 108.652344 L 217.367188 108.652344 C 218.058594 108.652344 218.613281 108.09375 218.613281 107.398438 L 218.613281 102.734375 C 218.613281 102.035156 218.058594 101.480469 217.367188 101.480469 " fill-opacity="1" fill-rule="nonzero"/><path fill="#00c2cb" d="M 231.984375 101.480469 L 225.332031 101.480469 C 224.640625 101.480469 224.085938 102.035156 224.085938 102.734375 L 224.085938 107.398438 C 224.085938 108.09375 224.640625 108.652344 225.332031 108.652344 L 231.984375 108.652344 C 232.664062 108.652344 233.21875 108.09375 233.21875 107.398438 L 233.21875 102.734375 C 233.21875 102.035156 232.664062 101.480469 231.984375 101.480469 " fill-opacity="1" fill-rule="nonzero"/><path fill="#00c2cb" d="M 246.578125 101.480469 L 239.9375 101.480469 C 239.246094 101.480469 238.691406 102.035156 238.691406 102.734375 L 238.691406 107.398438 C 238.691406 108.09375 239.246094 108.652344 239.9375 108.652344 L 246.578125 108.652344 C 247.269531 108.652344 247.824219 108.09375 247.824219 107.398438 L 247.824219 102.734375 C 247.824219 102.035156 247.269531 101.480469 246.578125 101.480469 " fill-opacity="1" fill-rule="nonzero"/><path fill="#00c2cb" d="M 261.195312 101.480469 L 254.542969 101.480469 C 253.847656 101.480469 253.296875 102.035156 253.296875 102.734375 L 253.296875 107.398438 C 253.296875 108.09375 253.847656 108.652344 254.542969 108.652344 L 261.195312 108.652344 C 261.875 108.652344 262.429688 108.09375 262.429688 107.398438 L 262.429688 102.734375 C 262.429688 102.035156 261.875 101.480469 261.195312 101.480469 " fill-opacity="1" fill-rule="nonzero"/><path fill="#00c2cb" d="M 275.800781 101.480469 L 269.148438 101.480469 C 268.46875 101.480469 267.902344 102.035156 267.902344 102.734375 L 267.902344 107.398438 C 267.902344 108.09375 268.46875 108.652344 269.148438 108.652344 L 275.800781 108.652344 C 276.480469 108.652344 277.046875 108.09375 277.046875 107.398438 L 277.046875 102.734375 C 277.046875 102.035156 276.480469 101.480469 275.800781 101.480469 " fill-opacity="1" fill-rule="nonzero"/><path fill="#00c2cb" d="M 290.40625 101.480469 L 283.753906 101.480469 C 283.074219 101.480469 282.507812 102.035156 282.507812 102.734375 L 282.507812 107.398438 C 282.507812 108.09375 283.074219 108.652344 283.753906 108.652344 L 290.40625 108.652344 C 291.085938 108.652344 291.652344 108.09375 291.652344 107.398438 L 291.652344 102.734375 C 291.652344 102.035156 291.085938 101.480469 290.40625 101.480469 " fill-opacity="1" fill-rule="nonzero"/><path fill="#00c2cb" d="M 305.011719 101.480469 L 298.359375 101.480469 C 297.679688 101.480469 297.113281 102.035156 297.113281 102.734375 L 297.113281 107.398438 C 297.113281 108.09375 297.679688 108.652344 298.359375 108.652344 L 305.011719 108.652344 C 305.703125 108.652344 306.257812 108.09375 306.257812 107.398438 L 306.257812 102.734375 C 306.257812 102.035156 305.703125 101.480469 305.011719 101.480469 " fill-opacity="1" fill-rule="nonzero"/><path fill="#00c2cb" d="M 319.617188 101.480469 L 312.964844 101.480469 C 312.285156 101.480469 311.730469 102.035156 311.730469 102.734375 L 311.730469 107.398438 C 311.730469 108.09375 312.285156 108.652344 312.964844 108.652344 L 319.617188 108.652344 C 320.308594 108.652344 320.863281 108.09375 320.863281 107.398438 L 320.863281 102.734375 C 320.863281 102.035156 320.308594 101.480469 319.617188 101.480469 " fill-opacity="1" fill-rule="nonzero"/><path fill="#00c2cb" d="M 202.761719 115.253906 L 196.121094 115.253906 C 195.429688 115.253906 194.875 115.8125 194.875 116.507812 L 194.875 121.1875 C 194.875 121.871094 195.429688 122.4375 196.121094 122.4375 L 202.761719 122.4375 C 203.453125 122.4375 204.007812 121.871094 204.007812 121.1875 L 204.007812 116.507812 C 204.007812 115.8125 203.453125 115.253906 202.761719 115.253906 " fill-opacity="1" fill-rule="nonzero"/><path fill="#00c2cb" d="M 217.910156 115.253906 L 211.253906 115.253906 C 210.5625 115.253906 210.007812 115.8125 210.007812 116.507812 L 210.007812 121.1875 C 210.007812 121.871094 210.5625 122.4375 211.253906 122.4375 L 217.910156 122.4375 C 218.585938 122.4375 219.152344 121.871094 219.152344 121.1875 L 219.152344 116.507812 C 219.152344 115.8125 218.585938 115.253906 217.910156 115.253906 " fill-opacity="1" fill-rule="nonzero"/><path fill="#00c2cb" d="M 290.40625 115.253906 L 283.753906 115.253906 C 283.074219 115.253906 282.507812 115.8125 282.507812 116.507812 L 282.507812 121.1875 C 282.507812 121.871094 283.074219 122.4375 283.753906 122.4375 L 290.40625 122.4375 C 291.085938 122.4375 291.652344 121.871094 291.652344 121.1875 L 291.652344 116.507812 C 291.652344 115.8125 291.085938 115.253906 290.40625 115.253906 " fill-opacity="1" fill-rule="nonzero"/><path fill="#00c2cb" d="M 305.011719 115.253906 L 298.359375 115.253906 C 297.679688 115.253906 297.113281 115.8125 297.113281 116.507812 L 297.113281 121.1875 C 297.113281 121.871094 297.679688 122.4375 298.359375 122.4375 L 305.011719 122.4375 C 305.703125 122.4375 306.257812 121.871094 306.257812 121.1875 L 306.257812 116.507812 C 306.257812 115.8125 305.703125 115.253906 305.011719 115.253906 " fill-opacity="1" fill-rule="nonzero"/><path fill="#00c2cb" d="M 319.617188 115.253906 L 312.964844 115.253906 C 312.285156 115.253906 311.730469 115.8125 311.730469 116.507812 L 311.730469 121.1875 C 311.730469 121.871094 312.285156 122.4375 312.964844 122.4375 L 319.617188 122.4375 C 320.308594 122.4375 320.863281 121.871094 320.863281 121.1875 L 320.863281 116.507812 C 320.863281 115.8125 320.308594 115.253906 319.617188 115.253906 " fill-opacity="1" fill-rule="nonzero"/><path fill="#00c2cb" d="M 275.210938 115.230469 L 226.011719 115.230469 C 225.316406 115.230469 224.765625 115.796875 224.765625 116.480469 L 224.765625 120.996094 C 224.765625 121.679688 225.316406 122.25 226.011719 122.25 L 275.210938 122.25 C 275.902344 122.25 276.457031 121.679688 276.457031 120.996094 L 276.457031 116.480469 C 276.457031 115.796875 275.902344 115.230469 275.210938 115.230469 " fill-opacity="1" fill-rule="nonzero"/><g fill="#00c2cb" fill-opacity="1"><g transform="translate(-0.000000000000021316, 118.141759)"><g><path d="M 31.859375 -26.78125 L 13.421875 -20.234375 L 31.859375 -13.703125 L 31.859375 -5.265625 L 3.359375 -15.78125 L 3.359375 -24.6875 L 31.859375 -35.21875 Z M 31.859375 -26.78125 "/></g></g></g><g fill="#00c2cb" fill-opacity="1"><g transform="translate(35.211876, 118.141759)"><g><path d="M 16.9375 -48.6875 L 26.71875 -48.6875 L 7.640625 5.78125 L -2.140625 5.78125 Z M 16.9375 -48.6875 "/></g></g></g><g fill="#ffffff" fill-opacity="1"><g transform="translate(59.200676, 118.141759)"><g><path d="M 42.5625 -40.484375 L 42.5625 0 L 33.140625 0 L 15.265625 -21.5625 L 15.265625 0 L 4.046875 0 L 4.046875 -40.484375 L 13.46875 -40.484375 L 31.34375 -18.90625 L 31.34375 -40.484375 Z M 42.5625 -40.484375 "/></g></g></g><g fill="#ffffff" fill-opacity="1"><g transform="translate(105.80295, 118.141759)"><g><path d="M 12.890625 0.8125 C 9.921875 0.8125 7.222656 0.300781 4.796875 -0.71875 C 2.367188 -1.738281 0.382812 -3.210938 -1.15625 -5.140625 L 5.09375 -12.546875 C 7.25 -9.734375 9.582031 -8.328125 12.09375 -8.328125 C 13.75 -8.328125 15.007812 -8.828125 15.875 -9.828125 C 16.738281 -10.828125 17.171875 -12.289062 17.171875 -14.21875 L 17.171875 -31.625 L 3.1875 -31.625 L 3.1875 -40.484375 L 28.515625 -40.484375 L 28.515625 -14.921875 C 28.515625 -9.679688 27.191406 -5.75 24.546875 -3.125 C 21.910156 -0.5 18.023438 0.8125 12.890625 0.8125 Z M 12.890625 0.8125 "/></g></g></g><g fill="#ffffff" fill-opacity="1"><g transform="translate(138.008228, 118.141759)"><g><path d="M 35.15625 -21.109375 C 37.46875 -20.296875 39.28125 -19.03125 40.59375 -17.3125 C 41.90625 -15.601562 42.5625 -13.535156 42.5625 -11.109375 C 42.5625 -7.554688 41.132812 -4.816406 38.28125 -2.890625 C 35.425781 -0.960938 31.300781 0 25.90625 0 L 4.046875 0 L 4.046875 -40.484375 L 24.75 -40.484375 C 29.914062 -40.484375 33.847656 -39.523438 36.546875 -37.609375 C 39.242188 -35.703125 40.59375 -33.128906 40.59375 -29.890625 C 40.59375 -27.960938 40.117188 -26.238281 39.171875 -24.71875 C 38.234375 -23.195312 36.894531 -21.992188 35.15625 -21.109375 Z M 15.375 -32.203125 L 15.375 -24.40625 L 23.25 -24.40625 C 27.101562 -24.40625 29.03125 -25.710938 29.03125 -28.328125 C 29.03125 -30.910156 27.101562 -32.203125 23.25 -32.203125 Z M 24.984375 -8.265625 C 28.992188 -8.265625 31 -9.632812 31 -12.375 C 31 -15.113281 28.992188 -16.484375 24.984375 -16.484375 L 15.375 -16.484375 L 15.375 -8.265625 Z M 24.984375 -8.265625 "/></g></g></g><g fill="#ffffff" fill-opacity="1"><g transform="translate(182.461418, 118.141759)"><g/></g></g><g fill="#ffffff" fill-opacity="1"><g transform="translate(199.286806, 118.141759)"><g/></g></g><g fill="#ffffff" fill-opacity="1"><g transform="translate(216.112194, 118.141759)"><g/></g></g><g fill="#ffffff" fill-opacity="1"><g transform="translate(232.937583, 118.141759)"><g/></g></g><g fill="#ffffff" fill-opacity="1"><g transform="translate(249.762971, 118.141759)"><g/></g></g><g fill="#ffffff" fill-opacity="1"><g transform="translate(266.588359, 118.141759)"><g/></g></g><g fill="#ffffff" fill-opacity="1"><g transform="translate(283.413747, 118.141759)"><g/></g></g><g fill="#ffffff" fill-opacity="1"><g transform="translate(300.239135, 118.141759)"><g/></g></g><g fill="#ffffff" fill-opacity="1"><g transform="translate(317.064524, 118.141759)"><g/></g></g><g fill="#00c2cb" fill-opacity="1"><g transform="translate(333.867155, 118.141759)"><g><path d="M 31.859375 -24.6875 L 31.859375 -15.78125 L 3.359375 -5.265625 L 3.359375 -13.703125 L 21.796875 -20.234375 L 3.359375 -26.78125 L 3.359375 -35.21875 Z M 31.859375 -24.6875 "/></g></g></g><g fill="#00c2cb" fill-opacity="1"><g transform="translate(67.847032, 177.148198)"><g><path d="M 2.53125 -16.90625 L 9.65625 -16.90625 C 11.445312 -16.90625 13.035156 -16.550781 14.421875 -15.84375 C 15.804688 -15.132812 16.878906 -14.140625 17.640625 -12.859375 C 18.410156 -11.578125 18.796875 -10.109375 18.796875 -8.453125 C 18.796875 -6.796875 18.410156 -5.328125 17.640625 -4.046875 C 16.878906 -2.765625 15.804688 -1.769531 14.421875 -1.0625 C 13.035156 -0.351562 11.445312 0 9.65625 0 L 2.53125 0 Z M 9.515625 -2.109375 C 10.890625 -2.109375 12.09375 -2.375 13.125 -2.90625 C 14.164062 -3.4375 14.96875 -4.179688 15.53125 -5.140625 C 16.09375 -6.097656 16.375 -7.203125 16.375 -8.453125 C 16.375 -9.710938 16.09375 -10.820312 15.53125 -11.78125 C 14.96875 -12.738281 14.164062 -13.484375 13.125 -14.015625 C 12.09375 -14.546875 10.890625 -14.8125 9.515625 -14.8125 L 4.953125 -14.8125 L 4.953125 -2.109375 Z M 9.515625 -2.109375 "/></g></g></g><g fill="#00c2cb" fill-opacity="1"><g transform="translate(87.794139, 177.148198)"><g><path d="M 14.8125 -2.109375 L 14.8125 0 L 2.53125 0 L 2.53125 -16.90625 L 14.46875 -16.90625 L 14.46875 -14.8125 L 4.953125 -14.8125 L 4.953125 -9.609375 L 13.4375 -9.609375 L 13.4375 -7.5625 L 4.953125 -7.5625 L 4.953125 -2.109375 Z M 14.8125 -2.109375 "/></g></g></g><g fill="#00c2cb" fill-opacity="1"><g transform="translate(103.973995, 177.148198)"><g><path d="M 7.46875 0.1875 C 6.195312 0.1875 4.96875 -0.00390625 3.78125 -0.390625 C 2.59375 -0.785156 1.660156 -1.300781 0.984375 -1.9375 L 1.890625 -3.8125 C 2.523438 -3.238281 3.347656 -2.769531 4.359375 -2.40625 C 5.367188 -2.039062 6.40625 -1.859375 7.46875 -1.859375 C 8.863281 -1.859375 9.90625 -2.09375 10.59375 -2.5625 C 11.289062 -3.039062 11.640625 -3.675781 11.640625 -4.46875 C 11.640625 -5.050781 11.453125 -5.519531 11.078125 -5.875 C 10.703125 -6.238281 10.234375 -6.515625 9.671875 -6.703125 C 9.117188 -6.898438 8.332031 -7.125 7.3125 -7.375 C 6.039062 -7.675781 5.015625 -7.976562 4.234375 -8.28125 C 3.453125 -8.59375 2.785156 -9.066406 2.234375 -9.703125 C 1.679688 -10.335938 1.40625 -11.191406 1.40625 -12.265625 C 1.40625 -13.171875 1.640625 -13.984375 2.109375 -14.703125 C 2.585938 -15.429688 3.304688 -16.015625 4.265625 -16.453125 C 5.234375 -16.890625 6.4375 -17.109375 7.875 -17.109375 C 8.875 -17.109375 9.851562 -16.976562 10.8125 -16.71875 C 11.78125 -16.457031 12.613281 -16.085938 13.3125 -15.609375 L 12.515625 -13.671875 C 11.804688 -14.117188 11.046875 -14.457031 10.234375 -14.6875 C 9.429688 -14.925781 8.644531 -15.046875 7.875 -15.046875 C 6.507812 -15.046875 5.484375 -14.796875 4.796875 -14.296875 C 4.109375 -13.796875 3.765625 -13.15625 3.765625 -12.375 C 3.765625 -11.789062 3.957031 -11.316406 4.34375 -10.953125 C 4.726562 -10.585938 5.207031 -10.304688 5.78125 -10.109375 C 6.351562 -9.910156 7.128906 -9.695312 8.109375 -9.46875 C 9.390625 -9.164062 10.414062 -8.859375 11.1875 -8.546875 C 11.957031 -8.242188 12.617188 -7.773438 13.171875 -7.140625 C 13.734375 -6.515625 14.015625 -5.671875 14.015625 -4.609375 C 14.015625 -3.722656 13.769531 -2.914062 13.28125 -2.1875 C 12.800781 -1.457031 12.066406 -0.878906 11.078125 -0.453125 C 10.097656 -0.0234375 8.894531 0.1875 7.46875 0.1875 Z M 7.46875 0.1875 "/></g></g></g><g fill="#00c2cb" fill-opacity="1"><g transform="translate(118.97056, 177.148198)"><g><path d="M 13.3125 -4.234375 L 4.328125 -4.234375 L 2.46875 0 L -0.03125 0 L 7.640625 -16.90625 L 10.03125 -16.90625 L 17.703125 0 L 15.171875 0 Z M 12.46875 -6.15625 L 8.8125 -14.453125 L 5.171875 -6.15625 Z M 12.46875 -6.15625 "/></g></g></g><g fill="#00c2cb" fill-opacity="1"><g transform="translate(136.647656, 177.148198)"><g><path d="M 13.84375 0 L 10.1875 -5.1875 C 9.738281 -5.15625 9.382812 -5.140625 9.125 -5.140625 L 4.953125 -5.140625 L 4.953125 0 L 2.53125 0 L 2.53125 -16.90625 L 9.125 -16.90625 C 11.320312 -16.90625 13.046875 -16.378906 14.296875 -15.328125 C 15.554688 -14.285156 16.1875 -12.847656 16.1875 -11.015625 C 16.1875 -9.710938 15.863281 -8.601562 15.21875 -7.6875 C 14.570312 -6.769531 13.65625 -6.097656 12.46875 -5.671875 L 16.46875 0 Z M 9.0625 -7.203125 C 10.59375 -7.203125 11.757812 -7.53125 12.5625 -8.1875 C 13.363281 -8.84375 13.765625 -9.785156 13.765625 -11.015625 C 13.765625 -12.234375 13.363281 -13.171875 12.5625 -13.828125 C 11.757812 -14.484375 10.59375 -14.8125 9.0625 -14.8125 L 4.953125 -14.8125 L 4.953125 -7.203125 Z M 9.0625 -7.203125 "/></g></g></g><g fill="#00c2cb" fill-opacity="1"><g transform="translate(154.20402, 177.148198)"><g><path d="M 13.84375 0 L 10.1875 -5.1875 C 9.738281 -5.15625 9.382812 -5.140625 9.125 -5.140625 L 4.953125 -5.140625 L 4.953125 0 L 2.53125 0 L 2.53125 -16.90625 L 9.125 -16.90625 C 11.320312 -16.90625 13.046875 -16.378906 14.296875 -15.328125 C 15.554688 -14.285156 16.1875 -12.847656 16.1875 -11.015625 C 16.1875 -9.710938 15.863281 -8.601562 15.21875 -7.6875 C 14.570312 -6.769531 13.65625 -6.097656 12.46875 -5.671875 L 16.46875 0 Z M 9.0625 -7.203125 C 10.59375 -7.203125 11.757812 -7.53125 12.5625 -8.1875 C 13.363281 -8.84375 13.765625 -9.785156 13.765625 -11.015625 C 13.765625 -12.234375 13.363281 -13.171875 12.5625 -13.828125 C 11.757812 -14.484375 10.59375 -14.8125 9.0625 -14.8125 L 4.953125 -14.8125 L 4.953125 -7.203125 Z M 9.0625 -7.203125 "/></g></g></g><g fill="#00c2cb" fill-opacity="1"><g transform="translate(171.760383, 177.148198)"><g><path d="M 10.171875 0.1875 C 8.460938 0.1875 6.921875 -0.179688 5.546875 -0.921875 C 4.179688 -1.671875 3.109375 -2.707031 2.328125 -4.03125 C 1.546875 -5.351562 1.15625 -6.828125 1.15625 -8.453125 C 1.15625 -10.078125 1.546875 -11.550781 2.328125 -12.875 C 3.109375 -14.195312 4.179688 -15.234375 5.546875 -15.984375 C 6.921875 -16.734375 8.460938 -17.109375 10.171875 -17.109375 C 11.859375 -17.109375 13.382812 -16.734375 14.75 -15.984375 C 16.125 -15.234375 17.195312 -14.203125 17.96875 -12.890625 C 18.738281 -11.578125 19.125 -10.097656 19.125 -8.453125 C 19.125 -6.804688 18.738281 -5.328125 17.96875 -4.015625 C 17.195312 -2.703125 16.125 -1.671875 14.75 -0.921875 C 13.382812 -0.179688 11.859375 0.1875 10.171875 0.1875 Z M 10.171875 -1.953125 C 11.410156 -1.953125 12.523438 -2.234375 13.515625 -2.796875 C 14.503906 -3.359375 15.285156 -4.132812 15.859375 -5.125 C 16.429688 -6.125 16.71875 -7.234375 16.71875 -8.453125 C 16.71875 -9.679688 16.429688 -10.789062 15.859375 -11.78125 C 15.285156 -12.769531 14.503906 -13.546875 13.515625 -14.109375 C 12.523438 -14.671875 11.410156 -14.953125 10.171875 -14.953125 C 8.929688 -14.953125 7.804688 -14.671875 6.796875 -14.109375 C 5.796875 -13.546875 5.007812 -12.769531 4.4375 -11.78125 C 3.863281 -10.789062 3.578125 -9.679688 3.578125 -8.453125 C 3.578125 -7.234375 3.863281 -6.125 4.4375 -5.125 C 5.007812 -4.132812 5.796875 -3.359375 6.796875 -2.796875 C 7.804688 -2.234375 8.929688 -1.953125 10.171875 -1.953125 Z M 10.171875 -1.953125 "/></g></g></g><g fill="#00c2cb" fill-opacity="1"><g transform="translate(192.045576, 177.148198)"><g><path d="M 2.53125 -16.90625 L 4.953125 -16.90625 L 4.953125 -2.109375 L 14.109375 -2.109375 L 14.109375 0 L 2.53125 0 Z M 2.53125 -16.90625 "/></g></g></g><g fill="#00c2cb" fill-opacity="1"><g transform="translate(206.390105, 177.148198)"><g><path d="M 2.53125 -16.90625 L 4.953125 -16.90625 L 4.953125 -2.109375 L 14.109375 -2.109375 L 14.109375 0 L 2.53125 0 Z M 2.53125 -16.90625 "/></g></g></g><g fill="#00c2cb" fill-opacity="1"><g transform="translate(220.734634, 177.148198)"><g><path d="M 13.3125 -4.234375 L 4.328125 -4.234375 L 2.46875 0 L -0.03125 0 L 7.640625 -16.90625 L 10.03125 -16.90625 L 17.703125 0 L 15.171875 0 Z M 12.46875 -6.15625 L 8.8125 -14.453125 L 5.171875 -6.15625 Z M 12.46875 -6.15625 "/></g></g></g><g fill="#00c2cb" fill-opacity="1"><g transform="translate(238.41173, 177.148198)"><g><path d="M 2.53125 -16.90625 L 9.65625 -16.90625 C 11.445312 -16.90625 13.035156 -16.550781 14.421875 -15.84375 C 15.804688 -15.132812 16.878906 -14.140625 17.640625 -12.859375 C 18.410156 -11.578125 18.796875 -10.109375 18.796875 -8.453125 C 18.796875 -6.796875 18.410156 -5.328125 17.640625 -4.046875 C 16.878906 -2.765625 15.804688 -1.769531 14.421875 -1.0625 C 13.035156 -0.351562 11.445312 0 9.65625 0 L 2.53125 0 Z M 9.515625 -2.109375 C 10.890625 -2.109375 12.09375 -2.375 13.125 -2.90625 C 14.164062 -3.4375 14.96875 -4.179688 15.53125 -5.140625 C 16.09375 -6.097656 16.375 -7.203125 16.375 -8.453125 C 16.375 -9.710938 16.09375 -10.820312 15.53125 -11.78125 C 14.96875 -12.738281 14.164062 -13.484375 13.125 -14.015625 C 12.09375 -14.546875 10.890625 -14.8125 9.515625 -14.8125 L 4.953125 -14.8125 L 4.953125 -2.109375 Z M 9.515625 -2.109375 "/></g></g></g><g fill="#00c2cb" fill-opacity="1"><g transform="translate(258.358837, 177.148198)"><g><path d="M 10.171875 0.1875 C 8.460938 0.1875 6.921875 -0.179688 5.546875 -0.921875 C 4.179688 -1.671875 3.109375 -2.707031 2.328125 -4.03125 C 1.546875 -5.351562 1.15625 -6.828125 1.15625 -8.453125 C 1.15625 -10.078125 1.546875 -11.550781 2.328125 -12.875 C 3.109375 -14.195312 4.179688 -15.234375 5.546875 -15.984375 C 6.921875 -16.734375 8.460938 -17.109375 10.171875 -17.109375 C 11.859375 -17.109375 13.382812 -16.734375 14.75 -15.984375 C 16.125 -15.234375 17.195312 -14.203125 17.96875 -12.890625 C 18.738281 -11.578125 19.125 -10.097656 19.125 -8.453125 C 19.125 -6.804688 18.738281 -5.328125 17.96875 -4.015625 C 17.195312 -2.703125 16.125 -1.671875 14.75 -0.921875 C 13.382812 -0.179688 11.859375 0.1875 10.171875 0.1875 Z M 10.171875 -1.953125 C 11.410156 -1.953125 12.523438 -2.234375 13.515625 -2.796875 C 14.503906 -3.359375 15.285156 -4.132812 15.859375 -5.125 C 16.429688 -6.125 16.71875 -7.234375 16.71875 -8.453125 C 16.71875 -9.679688 16.429688 -10.789062 15.859375 -11.78125 C 15.285156 -12.769531 14.503906 -13.546875 13.515625 -14.109375 C 12.523438 -14.671875 11.410156 -14.953125 10.171875 -14.953125 C 8.929688 -14.953125 7.804688 -14.671875 6.796875 -14.109375 C 5.796875 -13.546875 5.007812 -12.769531 4.4375 -11.78125 C 3.863281 -10.789062 3.578125 -9.679688 3.578125 -8.453125 C 3.578125 -7.234375 3.863281 -6.125 4.4375 -5.125 C 5.007812 -4.132812 5.796875 -3.359375 6.796875 -2.796875 C 7.804688 -2.234375 8.929688 -1.953125 10.171875 -1.953125 Z M 10.171875 -1.953125 "/></g></g></g><g fill="#00c2cb" fill-opacity="1"><g transform="translate(278.644029, 177.148198)"><g><path d="M 13.84375 0 L 10.1875 -5.1875 C 9.738281 -5.15625 9.382812 -5.140625 9.125 -5.140625 L 4.953125 -5.140625 L 4.953125 0 L 2.53125 0 L 2.53125 -16.90625 L 9.125 -16.90625 C 11.320312 -16.90625 13.046875 -16.378906 14.296875 -15.328125 C 15.554688 -14.285156 16.1875 -12.847656 16.1875 -11.015625 C 16.1875 -9.710938 15.863281 -8.601562 15.21875 -7.6875 C 14.570312 -6.769531 13.65625 -6.097656 12.46875 -5.671875 L 16.46875 0 Z M 9.0625 -7.203125 C 10.59375 -7.203125 11.757812 -7.53125 12.5625 -8.1875 C 13.363281 -8.84375 13.765625 -9.785156 13.765625 -11.015625 C 13.765625 -12.234375 13.363281 -13.171875 12.5625 -13.828125 C 11.757812 -14.484375 10.59375 -14.8125 9.0625 -14.8125 L 4.953125 -14.8125 L 4.953125 -7.203125 Z M 9.0625 -7.203125 "/></g></g></g></svg>